<?xml version="1.0" standalone="no"?>
<!DOCTYPE svg PUBLIC "-//W3C//DTD SVG 20010904//EN"
 "http://www.w3.org/TR/2001/REC-SVG-20010904/DTD/svg10.dtd">
<svg version="1.0" xmlns="http://www.w3.org/2000/svg"
 width="181.000000pt" height="181.000000pt" viewBox="0 0 181.000000 181.000000"
 preserveAspectRatio="xMidYMid meet">
<metadata>
Created by potrace 1.11, written by Peter Selinger 2001-2013
</metadata>
<g transform="translate(0.000000,181.000000) scale(0.100000,-0.100000)"
fill="#000000" stroke="none">
<path d="M542 1416 c218 -216 404 -398 411 -405 12 -9 31 4 103 75 49 47 221
215 383 373 161 157 309 301 328 319 l34 32 -190 0 -191 0 -68 -69 c-37 -37
-135 -138 -219 -224 -83 -85 -156 -158 -161 -161 -6 -3 -115 97 -244 224
l-233 230 -175 0 -175 0 397 -394z"/>
<path d="M0 1503 l0 -191 230 -223 c126 -123 229 -227 227 -231 -1 -4 -104
-111 -229 -237 l-228 -231 0 -170 c0 -93 2 -170 5 -170 9 0 800 801 800 810 0
4 -129 140 -286 302 -158 161 -339 347 -403 413 l-116 119 0 -191z"/>
<path d="M1618 1370 l-168 -169 0 -421 0 -420 -425 0 -424 0 -123 -127 c-68
-70 -144 -148 -171 -175 l-47 -48 770 0 770 0 0 765 c0 421 -3 765 -7 764 -5
0 -83 -77 -175 -169z"/>
</g>
</svg>
